<mxfile host="drawio-plugin" modified="2022-06-08T15:05:39.627Z" agent="5.0 (Windows NT 6.2; Win64; x64) AppleWebKit/537.36 (KHTML, like Gecko) Chrome/89.0.4389.114 Safari/537.36" etag="-9emy1SQIAdxSC9UXDP9" version="15.5.4" type="embed"><diagram id="HX7JHDvUuSpKK-Pkhiu5" name="Page-1"><mxGraphModel dx="3374" dy="1052" grid="1" gridSize="10" guides="1" tooltips="1" connect="1" arrows="1" fold="1" page="1" pageScale="1" pageWidth="850" pageHeight="1100" math="0" shadow="0"><root><mxCell id="0"/><mxCell id="1" parent="0"/><mxCell id="pK76Rk_N3CmU0ejMDRzn-13" value="" style="edgeStyle=orthogonalEdgeStyle;rounded=0;orthogonalLoop=1;jettySize=auto;html=1;endArrow=open;endFill=0;" parent="1" source="2" target="pK76Rk_N3CmU0ejMDRzn-12" edge="1"><mxGeometry relative="1" as="geometry"/></mxCell><mxCell id="2" value="AuoraApplication" style="swimlane;fontStyle=0;childLayout=stackLayout;horizontal=1;startSize=30;horizontalStack=0;resizeParent=1;resizeParentMax=0;resizeLast=0;collapsible=1;marginBottom=0;" parent="1" vertex="1"><mxGeometry x="160" y="160" width="160" height="60" as="geometry"/></mxCell><mxCell id="3" value="+ s main()" style="text;strokeColor=none;fillColor=none;align=left;verticalAlign=middle;spacingLeft=4;spacingRight=4;overflow=hidden;points=[[0,0.5],[1,0.5]];portConstraint=eastwest;rotatable=0;" parent="2" vertex="1"><mxGeometry y="30" width="160" height="30" as="geometry"/></mxCell><mxCell id="5" value="AccountController" style="swimlane;fontStyle=1;align=center;verticalAlign=top;childLayout=stackLayout;horizontal=1;startSize=26;horizontalStack=0;resizeParent=1;resizeParentMax=0;resizeLast=0;collapsible=1;marginBottom=0;" parent="1" vertex="1"><mxGeometry x="-1070" y="380" width="240" height="164" as="geometry"/></mxCell><mxCell id="pK76Rk_N3CmU0ejMDRzn-76" value="- loginService: LoginService" style="text;strokeColor=none;fillColor=none;align=left;verticalAlign=top;spacingLeft=4;spacingRight=4;overflow=hidden;rotatable=0;points=[[0,0.5],[1,0.5]];portConstraint=eastwest;" parent="5" vertex="1"><mxGeometry y="26" width="240" height="26" as="geometry"/></mxCell><mxCell id="pK76Rk_N3CmU0ejMDRzn-8" value="- registerService: RegisterService" style="text;strokeColor=none;fillColor=none;align=left;verticalAlign=top;spacingLeft=4;spacingRight=4;overflow=hidden;rotatable=0;points=[[0,0.5],[1,0.5]];portConstraint=eastwest;" parent="5" vertex="1"><mxGeometry y="52" width="240" height="26" as="geometry"/></mxCell><mxCell id="7" value="" style="line;strokeWidth=1;fillColor=none;align=left;verticalAlign=middle;spacingTop=-1;spacingLeft=3;spacingRight=3;rotatable=0;labelPosition=right;points=[];portConstraint=eastwest;" parent="5" vertex="1"><mxGeometry y="78" width="240" height="8" as="geometry"/></mxCell><mxCell id="8" value="+ login(): ResponseEntity" style="text;strokeColor=none;fillColor=none;align=left;verticalAlign=top;spacingLeft=4;spacingRight=4;overflow=hidden;rotatable=0;points=[[0,0.5],[1,0.5]];portConstraint=eastwest;" parent="5" vertex="1"><mxGeometry y="86" width="240" height="26" as="geometry"/></mxCell><mxCell id="pK76Rk_N3CmU0ejMDRzn-9" value="+ register(): ResponseEntity" style="text;strokeColor=none;fillColor=none;align=left;verticalAlign=top;spacingLeft=4;spacingRight=4;overflow=hidden;rotatable=0;points=[[0,0.5],[1,0.5]];portConstraint=eastwest;" parent="5" vertex="1"><mxGeometry y="112" width="240" height="26" as="geometry"/></mxCell><mxCell id="pK76Rk_N3CmU0ejMDRzn-10" value="+ delete(): ResponseEntity" style="text;strokeColor=none;fillColor=none;align=left;verticalAlign=top;spacingLeft=4;spacingRight=4;overflow=hidden;rotatable=0;points=[[0,0.5],[1,0.5]];portConstraint=eastwest;" parent="5" vertex="1"><mxGeometry y="138" width="240" height="26" as="geometry"/></mxCell><mxCell id="pK76Rk_N3CmU0ejMDRzn-15" style="edgeStyle=orthogonalEdgeStyle;rounded=0;orthogonalLoop=1;jettySize=auto;html=1;endArrow=open;endFill=0;" parent="1" source="pK76Rk_N3CmU0ejMDRzn-12" target="pK76Rk_N3CmU0ejMDRzn-14" edge="1"><mxGeometry relative="1" as="geometry"/></mxCell><mxCell id="pK76Rk_N3CmU0ejMDRzn-12" value="Main just starts the TomCat and creates all the associations" style="rounded=1;whiteSpace=wrap;html=1;fontStyle=0;startSize=30;" parent="1" vertex="1"><mxGeometry x="360" y="160" width="120" height="60" as="geometry"/></mxCell><mxCell id="pK76Rk_N3CmU0ejMDRzn-41" style="edgeStyle=orthogonalEdgeStyle;rounded=0;orthogonalLoop=1;jettySize=auto;html=1;entryX=0.5;entryY=0;entryDx=0;entryDy=0;endArrow=open;endFill=0;" parent="1" source="pK76Rk_N3CmU0ejMDRzn-14" target="5" edge="1"><mxGeometry relative="1" as="geometry"><mxPoint x="40" y="308" as="sourcePoint"/></mxGeometry></mxCell><mxCell id="pK76Rk_N3CmU0ejMDRzn-42" style="edgeStyle=orthogonalEdgeStyle;rounded=0;orthogonalLoop=1;jettySize=auto;html=1;entryX=0.5;entryY=0;entryDx=0;entryDy=0;endArrow=open;endFill=0;" parent="1" source="pK76Rk_N3CmU0ejMDRzn-14" target="pK76Rk_N3CmU0ejMDRzn-24" edge="1"><mxGeometry relative="1" as="geometry"><mxPoint x="-150" y="390" as="sourcePoint"/></mxGeometry></mxCell><mxCell id="pK76Rk_N3CmU0ejMDRzn-43" style="edgeStyle=orthogonalEdgeStyle;rounded=0;orthogonalLoop=1;jettySize=auto;html=1;entryX=0.5;entryY=0;entryDx=0;entryDy=0;endArrow=open;endFill=0;" parent="1" source="pK76Rk_N3CmU0ejMDRzn-14" target="pK76Rk_N3CmU0ejMDRzn-16" edge="1"><mxGeometry relative="1" as="geometry"/></mxCell><mxCell id="pK76Rk_N3CmU0ejMDRzn-44" style="edgeStyle=orthogonalEdgeStyle;rounded=0;orthogonalLoop=1;jettySize=auto;html=1;entryX=0.5;entryY=0;entryDx=0;entryDy=0;endArrow=open;endFill=0;" parent="1" source="pK76Rk_N3CmU0ejMDRzn-14" target="pK76Rk_N3CmU0ejMDRzn-32" edge="1"><mxGeometry relative="1" as="geometry"/></mxCell><mxCell id="pK76Rk_N3CmU0ejMDRzn-14" value="The user/app can access any publicly available information of the API via the Controllers" style="rounded=0;whiteSpace=wrap;html=1;" parent="1" vertex="1"><mxGeometry x="320" y="280" width="200" height="80" as="geometry"/></mxCell><mxCell id="pK76Rk_N3CmU0ejMDRzn-16" value="CommentController" style="swimlane;fontStyle=1;align=center;verticalAlign=top;childLayout=stackLayout;horizontal=1;startSize=26;horizontalStack=0;resizeParent=1;resizeParentMax=0;resizeLast=0;collapsible=1;marginBottom=0;" parent="1" vertex="1"><mxGeometry x="790" y="401" width="240" height="138" as="geometry"/></mxCell><mxCell id="102" value="- commentService: CommentService" style="text;strokeColor=none;fillColor=none;align=left;verticalAlign=top;spacingLeft=4;spacingRight=4;overflow=hidden;rotatable=0;points=[[0,0.5],[1,0.5]];portConstraint=eastwest;" parent="pK76Rk_N3CmU0ejMDRzn-16" vertex="1"><mxGeometry y="26" width="240" height="26" as="geometry"/></mxCell><mxCell id="pK76Rk_N3CmU0ejMDRzn-19" value="" style="line;strokeWidth=1;fillColor=none;align=left;verticalAlign=middle;spacingTop=-1;spacingLeft=3;spacingRight=3;rotatable=0;labelPosition=right;points=[];portConstraint=eastwest;" parent="pK76Rk_N3CmU0ejMDRzn-16" vertex="1"><mxGeometry y="52" width="240" height="8" as="geometry"/></mxCell><mxCell id="pK76Rk_N3CmU0ejMDRzn-21" value="+ addUpvote(): ResponseEntity" style="text;strokeColor=none;fillColor=none;align=left;verticalAlign=top;spacingLeft=4;spacingRight=4;overflow=hidden;rotatable=0;points=[[0,0.5],[1,0.5]];portConstraint=eastwest;" parent="pK76Rk_N3CmU0ejMDRzn-16" vertex="1"><mxGeometry y="60" width="240" height="26" as="geometry"/></mxCell><mxCell id="pK76Rk_N3CmU0ejMDRzn-22" value="+ addDownvote(): ResponseEntity" style="text;strokeColor=none;fillColor=none;align=left;verticalAlign=top;spacingLeft=4;spacingRight=4;overflow=hidden;rotatable=0;points=[[0,0.5],[1,0.5]];portConstraint=eastwest;" parent="pK76Rk_N3CmU0ejMDRzn-16" vertex="1"><mxGeometry y="86" width="240" height="26" as="geometry"/></mxCell><mxCell id="pK76Rk_N3CmU0ejMDRzn-23" value="+ delete(): ResponseEntity" style="text;strokeColor=none;fillColor=none;align=left;verticalAlign=top;spacingLeft=4;spacingRight=4;overflow=hidden;rotatable=0;points=[[0,0.5],[1,0.5]];portConstraint=eastwest;" parent="pK76Rk_N3CmU0ejMDRzn-16" vertex="1"><mxGeometry y="112" width="240" height="26" as="geometry"/></mxCell><mxCell id="pK76Rk_N3CmU0ejMDRzn-24" value="QuestionController" style="swimlane;fontStyle=1;align=center;verticalAlign=top;childLayout=stackLayout;horizontal=1;startSize=26;horizontalStack=0;resizeParent=1;resizeParentMax=0;resizeLast=0;collapsible=1;marginBottom=0;" parent="1" vertex="1"><mxGeometry x="-200" y="380" width="240" height="190" as="geometry"/></mxCell><mxCell id="pK76Rk_N3CmU0ejMDRzn-26" value="- questionService: QuestionService" style="text;strokeColor=none;fillColor=none;align=left;verticalAlign=top;spacingLeft=4;spacingRight=4;overflow=hidden;rotatable=0;points=[[0,0.5],[1,0.5]];portConstraint=eastwest;" parent="pK76Rk_N3CmU0ejMDRzn-24" vertex="1"><mxGeometry y="26" width="240" height="26" as="geometry"/></mxCell><mxCell id="pK76Rk_N3CmU0ejMDRzn-27" value="" style="line;strokeWidth=1;fillColor=none;align=left;verticalAlign=middle;spacingTop=-1;spacingLeft=3;spacingRight=3;rotatable=0;labelPosition=right;points=[];portConstraint=eastwest;" parent="pK76Rk_N3CmU0ejMDRzn-24" vertex="1"><mxGeometry y="52" width="240" height="8" as="geometry"/></mxCell><mxCell id="pK76Rk_N3CmU0ejMDRzn-28" value="+ add(): ResponseEntity" style="text;strokeColor=none;fillColor=none;align=left;verticalAlign=top;spacingLeft=4;spacingRight=4;overflow=hidden;rotatable=0;points=[[0,0.5],[1,0.5]];portConstraint=eastwest;" parent="pK76Rk_N3CmU0ejMDRzn-24" vertex="1"><mxGeometry y="60" width="240" height="26" as="geometry"/></mxCell><mxCell id="pK76Rk_N3CmU0ejMDRzn-29" value="+ addUpvote(): ResponseEntity" style="text;strokeColor=none;fillColor=none;align=left;verticalAlign=top;spacingLeft=4;spacingRight=4;overflow=hidden;rotatable=0;points=[[0,0.5],[1,0.5]];portConstraint=eastwest;" parent="pK76Rk_N3CmU0ejMDRzn-24" vertex="1"><mxGeometry y="86" width="240" height="26" as="geometry"/></mxCell><mxCell id="pK76Rk_N3CmU0ejMDRzn-30" value="+ addDownvote(): ResponseEntity" style="text;strokeColor=none;fillColor=none;align=left;verticalAlign=top;spacingLeft=4;spacingRight=4;overflow=hidden;rotatable=0;points=[[0,0.5],[1,0.5]];portConstraint=eastwest;" parent="pK76Rk_N3CmU0ejMDRzn-24" vertex="1"><mxGeometry y="112" width="240" height="26" as="geometry"/></mxCell><mxCell id="pK76Rk_N3CmU0ejMDRzn-31" value="+ delete(): ResponseEntity" style="text;strokeColor=none;fillColor=none;align=left;verticalAlign=top;spacingLeft=4;spacingRight=4;overflow=hidden;rotatable=0;points=[[0,0.5],[1,0.5]];portConstraint=eastwest;" parent="pK76Rk_N3CmU0ejMDRzn-24" vertex="1"><mxGeometry y="138" width="240" height="26" as="geometry"/></mxCell><mxCell id="pK76Rk_N3CmU0ejMDRzn-40" value="+ addComment(): ResponseEntity" style="text;strokeColor=none;fillColor=none;align=left;verticalAlign=top;spacingLeft=4;spacingRight=4;overflow=hidden;rotatable=0;points=[[0,0.5],[1,0.5]];portConstraint=eastwest;" parent="pK76Rk_N3CmU0ejMDRzn-24" vertex="1"><mxGeometry y="164" width="240" height="26" as="geometry"/></mxCell><mxCell id="pK76Rk_N3CmU0ejMDRzn-32" value="ThreadController" style="swimlane;fontStyle=1;align=center;verticalAlign=top;childLayout=stackLayout;horizontal=1;startSize=26;horizontalStack=0;resizeParent=1;resizeParentMax=0;resizeLast=0;collapsible=1;marginBottom=0;" parent="1" vertex="1"><mxGeometry x="1790" y="427" width="240" height="190" as="geometry"/></mxCell><mxCell id="pK76Rk_N3CmU0ejMDRzn-33" value="- threadService: ThreadService" style="text;strokeColor=none;fillColor=none;align=left;verticalAlign=top;spacingLeft=4;spacingRight=4;overflow=hidden;rotatable=0;points=[[0,0.5],[1,0.5]];portConstraint=eastwest;" parent="pK76Rk_N3CmU0ejMDRzn-32" vertex="1"><mxGeometry y="26" width="240" height="26" as="geometry"/></mxCell><mxCell id="pK76Rk_N3CmU0ejMDRzn-35" value="" style="line;strokeWidth=1;fillColor=none;align=left;verticalAlign=middle;spacingTop=-1;spacingLeft=3;spacingRight=3;rotatable=0;labelPosition=right;points=[];portConstraint=eastwest;" parent="pK76Rk_N3CmU0ejMDRzn-32" vertex="1"><mxGeometry y="52" width="240" height="8" as="geometry"/></mxCell><mxCell id="pK76Rk_N3CmU0ejMDRzn-36" value="+ add(): ResponseEntity" style="text;strokeColor=none;fillColor=none;align=left;verticalAlign=top;spacingLeft=4;spacingRight=4;overflow=hidden;rotatable=0;points=[[0,0.5],[1,0.5]];portConstraint=eastwest;" parent="pK76Rk_N3CmU0ejMDRzn-32" vertex="1"><mxGeometry y="60" width="240" height="26" as="geometry"/></mxCell><mxCell id="149" value="+ addDownvote(): ResponseEntity" style="text;strokeColor=none;fillColor=none;align=left;verticalAlign=top;spacingLeft=4;spacingRight=4;overflow=hidden;rotatable=0;points=[[0,0.5],[1,0.5]];portConstraint=eastwest;" parent="pK76Rk_N3CmU0ejMDRzn-32" vertex="1"><mxGeometry y="86" width="240" height="26" as="geometry"/></mxCell><mxCell id="148" value="+ addUpvote(): ResponseEntity" style="text;strokeColor=none;fillColor=none;align=left;verticalAlign=top;spacingLeft=4;spacingRight=4;overflow=hidden;rotatable=0;points=[[0,0.5],[1,0.5]];portConstraint=eastwest;" parent="pK76Rk_N3CmU0ejMDRzn-32" vertex="1"><mxGeometry y="112" width="240" height="26" as="geometry"/></mxCell><mxCell id="pK76Rk_N3CmU0ejMDRzn-39" value="+ addComment(): ResponseEntity" style="text;strokeColor=none;fillColor=none;align=left;verticalAlign=top;spacingLeft=4;spacingRight=4;overflow=hidden;rotatable=0;points=[[0,0.5],[1,0.5]];portConstraint=eastwest;" parent="pK76Rk_N3CmU0ejMDRzn-32" vertex="1"><mxGeometry y="138" width="240" height="26" as="geometry"/></mxCell><mxCell id="150" value="+ delete(): ResponseEntity" style="text;strokeColor=none;fillColor=none;align=left;verticalAlign=top;spacingLeft=4;spacingRight=4;overflow=hidden;rotatable=0;points=[[0,0.5],[1,0.5]];portConstraint=eastwest;" parent="pK76Rk_N3CmU0ejMDRzn-32" vertex="1"><mxGeometry y="164" width="240" height="26" as="geometry"/></mxCell><mxCell id="pK76Rk_N3CmU0ejMDRzn-96" style="edgeStyle=orthogonalEdgeStyle;rounded=0;orthogonalLoop=1;jettySize=auto;html=1;dashed=1;startArrow=open;startFill=0;endArrow=none;endFill=0;" parent="1" source="pK76Rk_N3CmU0ejMDRzn-45" target="pK76Rk_N3CmU0ejMDRzn-87" edge="1"><mxGeometry relative="1" as="geometry"><Array as="points"><mxPoint x="-840" y="820"/></Array></mxGeometry></mxCell><mxCell id="pK76Rk_N3CmU0ejMDRzn-45" value="&lt;&lt;interface&gt;&gt;&#10;AccountRepository" style="swimlane;fontStyle=1;align=center;verticalAlign=top;childLayout=stackLayout;horizontal=1;startSize=40;horizontalStack=0;resizeParent=1;resizeParentMax=0;resizeLast=0;collapsible=1;marginBottom=0;" parent="1" vertex="1"><mxGeometry x="-1320" y="770" width="240" height="100" as="geometry"/></mxCell><mxCell id="pK76Rk_N3CmU0ejMDRzn-48" value="" style="line;strokeWidth=1;fillColor=none;align=left;verticalAlign=middle;spacingTop=-1;spacingLeft=3;spacingRight=3;rotatable=0;labelPosition=right;points=[];portConstraint=eastwest;" parent="pK76Rk_N3CmU0ejMDRzn-45" vertex="1"><mxGeometry y="40" width="240" height="8" as="geometry"/></mxCell><mxCell id="pK76Rk_N3CmU0ejMDRzn-49" value="+ findById(): Account" style="text;strokeColor=none;fillColor=none;align=left;verticalAlign=top;spacingLeft=4;spacingRight=4;overflow=hidden;rotatable=0;points=[[0,0.5],[1,0.5]];portConstraint=eastwest;" parent="pK76Rk_N3CmU0ejMDRzn-45" vertex="1"><mxGeometry y="48" width="240" height="26" as="geometry"/></mxCell><mxCell id="pK76Rk_N3CmU0ejMDRzn-50" value="+ findByEmail(): Account" style="text;strokeColor=none;fillColor=none;align=left;verticalAlign=top;spacingLeft=4;spacingRight=4;overflow=hidden;rotatable=0;points=[[0,0.5],[1,0.5]];portConstraint=eastwest;" parent="pK76Rk_N3CmU0ejMDRzn-45" vertex="1"><mxGeometry y="74" width="240" height="26" as="geometry"/></mxCell><mxCell id="pK76Rk_N3CmU0ejMDRzn-59" style="edgeStyle=orthogonalEdgeStyle;rounded=0;orthogonalLoop=1;jettySize=auto;html=1;startArrow=diamond;startFill=1;endArrow=none;endFill=0;strokeColor=default;" parent="1" source="pK76Rk_N3CmU0ejMDRzn-52" target="pK76Rk_N3CmU0ejMDRzn-45" edge="1"><mxGeometry relative="1" as="geometry"/></mxCell><mxCell id="pK76Rk_N3CmU0ejMDRzn-52" value="Account" style="swimlane;fontStyle=1;align=center;verticalAlign=top;childLayout=stackLayout;horizontal=1;startSize=26;horizontalStack=0;resizeParent=1;resizeParentMax=0;resizeLast=0;collapsible=1;marginBottom=0;" parent="1" vertex="1"><mxGeometry x="-1320" y="910" width="240" height="138" as="geometry"/></mxCell><mxCell id="pK76Rk_N3CmU0ejMDRzn-56" value="- id: Long" style="text;strokeColor=none;fillColor=none;align=left;verticalAlign=top;spacingLeft=4;spacingRight=4;overflow=hidden;rotatable=0;points=[[0,0.5],[1,0.5]];portConstraint=eastwest;" parent="pK76Rk_N3CmU0ejMDRzn-52" vertex="1"><mxGeometry y="26" width="240" height="26" as="geometry"/></mxCell><mxCell id="pK76Rk_N3CmU0ejMDRzn-57" value="- email: String" style="text;strokeColor=none;fillColor=none;align=left;verticalAlign=top;spacingLeft=4;spacingRight=4;overflow=hidden;rotatable=0;points=[[0,0.5],[1,0.5]];portConstraint=eastwest;" parent="pK76Rk_N3CmU0ejMDRzn-52" vertex="1"><mxGeometry y="52" width="240" height="26" as="geometry"/></mxCell><mxCell id="pK76Rk_N3CmU0ejMDRzn-58" value="- password: String" style="text;strokeColor=none;fillColor=none;align=left;verticalAlign=top;spacingLeft=4;spacingRight=4;overflow=hidden;rotatable=0;points=[[0,0.5],[1,0.5]];portConstraint=eastwest;" parent="pK76Rk_N3CmU0ejMDRzn-52" vertex="1"><mxGeometry y="78" width="240" height="26" as="geometry"/></mxCell><mxCell id="pK76Rk_N3CmU0ejMDRzn-53" value="" style="line;strokeWidth=1;fillColor=none;align=left;verticalAlign=middle;spacingTop=-1;spacingLeft=3;spacingRight=3;rotatable=0;labelPosition=right;points=[];portConstraint=eastwest;" parent="pK76Rk_N3CmU0ejMDRzn-52" vertex="1"><mxGeometry y="104" width="240" height="8" as="geometry"/></mxCell><mxCell id="pK76Rk_N3CmU0ejMDRzn-55" value="+ setters &amp; getters" style="text;strokeColor=none;fillColor=none;align=left;verticalAlign=top;spacingLeft=4;spacingRight=4;overflow=hidden;rotatable=0;points=[[0,0.5],[1,0.5]];portConstraint=eastwest;" parent="pK76Rk_N3CmU0ejMDRzn-52" vertex="1"><mxGeometry y="112" width="240" height="26" as="geometry"/></mxCell><mxCell id="pK76Rk_N3CmU0ejMDRzn-93" style="edgeStyle=orthogonalEdgeStyle;rounded=0;orthogonalLoop=1;jettySize=auto;html=1;startArrow=open;startFill=0;endArrow=diamond;endFill=1;" parent="1" source="pK76Rk_N3CmU0ejMDRzn-61" target="pK76Rk_N3CmU0ejMDRzn-87" edge="1"><mxGeometry relative="1" as="geometry"><Array as="points"><mxPoint x="-760" y="830"/><mxPoint x="-760" y="830"/></Array></mxGeometry></mxCell><mxCell id="167" value="1 : 1" style="edgeLabel;html=1;align=center;verticalAlign=middle;resizable=0;points=[];" parent="pK76Rk_N3CmU0ejMDRzn-93" vertex="1" connectable="0"><mxGeometry x="0.2358" y="-3" relative="1" as="geometry"><mxPoint as="offset"/></mxGeometry></mxCell><mxCell id="pK76Rk_N3CmU0ejMDRzn-94" style="edgeStyle=orthogonalEdgeStyle;rounded=0;orthogonalLoop=1;jettySize=auto;html=1;startArrow=open;startFill=0;endArrow=diamond;endFill=1;" parent="1" source="pK76Rk_N3CmU0ejMDRzn-61" target="pK76Rk_N3CmU0ejMDRzn-77" edge="1"><mxGeometry relative="1" as="geometry"><Array as="points"><mxPoint x="-830" y="910"/><mxPoint x="-1040" y="910"/></Array></mxGeometry></mxCell><mxCell id="166" value="1 : 1" style="edgeLabel;html=1;align=center;verticalAlign=middle;resizable=0;points=[];" parent="pK76Rk_N3CmU0ejMDRzn-94" vertex="1" connectable="0"><mxGeometry x="-0.2227" y="-2" relative="1" as="geometry"><mxPoint as="offset"/></mxGeometry></mxCell><mxCell id="162" style="edgeStyle=orthogonalEdgeStyle;rounded=0;orthogonalLoop=1;jettySize=auto;html=1;startArrow=none;startFill=0;endArrow=open;endFill=0;dashed=1;" parent="1" source="pK76Rk_N3CmU0ejMDRzn-61" target="pK76Rk_N3CmU0ejMDRzn-65" edge="1"><mxGeometry relative="1" as="geometry"/></mxCell><mxCell id="pK76Rk_N3CmU0ejMDRzn-61" value="#AccountMapper::AbstractClass" style="swimlane;fontStyle=3;align=center;verticalAlign=top;childLayout=stackLayout;horizontal=1;startSize=26;horizontalStack=0;resizeParent=1;resizeParentMax=0;resizeLast=0;collapsible=1;marginBottom=0;" parent="1" vertex="1"><mxGeometry x="-910" y="936" width="240" height="86" as="geometry"/></mxCell><mxCell id="pK76Rk_N3CmU0ejMDRzn-62" value="" style="line;strokeWidth=1;fillColor=none;align=left;verticalAlign=middle;spacingTop=-1;spacingLeft=3;spacingRight=3;rotatable=0;labelPosition=right;points=[];portConstraint=eastwest;" parent="pK76Rk_N3CmU0ejMDRzn-61" vertex="1"><mxGeometry y="26" width="240" height="8" as="geometry"/></mxCell><mxCell id="pK76Rk_N3CmU0ejMDRzn-63" value="+ entityToDto(): AccountDTO" style="text;strokeColor=none;fillColor=none;align=left;verticalAlign=top;spacingLeft=4;spacingRight=4;overflow=hidden;rotatable=0;points=[[0,0.5],[1,0.5]];portConstraint=eastwest;" parent="pK76Rk_N3CmU0ejMDRzn-61" vertex="1"><mxGeometry y="34" width="240" height="26" as="geometry"/></mxCell><mxCell id="pK76Rk_N3CmU0ejMDRzn-64" value="+ dtoToEntity(): Account" style="text;strokeColor=none;fillColor=none;align=left;verticalAlign=top;spacingLeft=4;spacingRight=4;overflow=hidden;rotatable=0;points=[[0,0.5],[1,0.5]];portConstraint=eastwest;" parent="pK76Rk_N3CmU0ejMDRzn-61" vertex="1"><mxGeometry y="60" width="240" height="26" as="geometry"/></mxCell><mxCell id="pK76Rk_N3CmU0ejMDRzn-86" style="edgeStyle=orthogonalEdgeStyle;rounded=0;orthogonalLoop=1;jettySize=auto;html=1;startArrow=open;startFill=0;endArrow=diamond;endFill=1;" parent="1" source="pK76Rk_N3CmU0ejMDRzn-77" target="5" edge="1"><mxGeometry relative="1" as="geometry"><Array as="points"><mxPoint x="-1110" y="578"/><mxPoint x="-1040" y="578"/></Array></mxGeometry></mxCell><mxCell id="163" value="1 : 1" style="edgeLabel;html=1;align=center;verticalAlign=middle;resizable=0;points=[];" parent="pK76Rk_N3CmU0ejMDRzn-86" vertex="1" connectable="0"><mxGeometry x="-0.2029" y="1" relative="1" as="geometry"><mxPoint as="offset"/></mxGeometry></mxCell><mxCell id="pK76Rk_N3CmU0ejMDRzn-77" value="LoginService" style="swimlane;fontStyle=1;align=center;verticalAlign=top;childLayout=stackLayout;horizontal=1;startSize=26;horizontalStack=0;resizeParent=1;resizeParentMax=0;resizeLast=0;collapsible=1;marginBottom=0;" parent="1" vertex="1"><mxGeometry x="-1230" y="612" width="240" height="112" as="geometry"/></mxCell><mxCell id="pK76Rk_N3CmU0ejMDRzn-78" value="- repository: AccountRepository" style="text;strokeColor=none;fillColor=none;align=left;verticalAlign=top;spacingLeft=4;spacingRight=4;overflow=hidden;rotatable=0;points=[[0,0.5],[1,0.5]];portConstraint=eastwest;" parent="pK76Rk_N3CmU0ejMDRzn-77" vertex="1"><mxGeometry y="26" width="240" height="26" as="geometry"/></mxCell><mxCell id="pK76Rk_N3CmU0ejMDRzn-79" value="- mapper: AccountMapper" style="text;strokeColor=none;fillColor=none;align=left;verticalAlign=top;spacingLeft=4;spacingRight=4;overflow=hidden;rotatable=0;points=[[0,0.5],[1,0.5]];portConstraint=eastwest;" parent="pK76Rk_N3CmU0ejMDRzn-77" vertex="1"><mxGeometry y="52" width="240" height="26" as="geometry"/></mxCell><mxCell id="pK76Rk_N3CmU0ejMDRzn-82" value="" style="line;strokeWidth=1;fillColor=none;align=left;verticalAlign=middle;spacingTop=-1;spacingLeft=3;spacingRight=3;rotatable=0;labelPosition=right;points=[];portConstraint=eastwest;" parent="pK76Rk_N3CmU0ejMDRzn-77" vertex="1"><mxGeometry y="78" width="240" height="8" as="geometry"/></mxCell><mxCell id="pK76Rk_N3CmU0ejMDRzn-83" value="+ login(): boolean" style="text;strokeColor=none;fillColor=none;align=left;verticalAlign=top;spacingLeft=4;spacingRight=4;overflow=hidden;rotatable=0;points=[[0,0.5],[1,0.5]];portConstraint=eastwest;" parent="pK76Rk_N3CmU0ejMDRzn-77" vertex="1"><mxGeometry y="86" width="240" height="26" as="geometry"/></mxCell><mxCell id="pK76Rk_N3CmU0ejMDRzn-92" style="edgeStyle=orthogonalEdgeStyle;rounded=0;orthogonalLoop=1;jettySize=auto;html=1;startArrow=open;startFill=0;endArrow=diamond;endFill=1;" parent="1" source="pK76Rk_N3CmU0ejMDRzn-87" target="5" edge="1"><mxGeometry relative="1" as="geometry"><Array as="points"><mxPoint x="-790" y="578"/><mxPoint x="-880" y="578"/></Array></mxGeometry></mxCell><mxCell id="164" value="1 : 1" style="edgeLabel;html=1;align=center;verticalAlign=middle;resizable=0;points=[];" parent="pK76Rk_N3CmU0ejMDRzn-92" vertex="1" connectable="0"><mxGeometry x="0.1646" y="-2" relative="1" as="geometry"><mxPoint as="offset"/></mxGeometry></mxCell><mxCell id="pK76Rk_N3CmU0ejMDRzn-87" value="RegisterService" style="swimlane;fontStyle=1;align=center;verticalAlign=top;childLayout=stackLayout;horizontal=1;startSize=26;horizontalStack=0;resizeParent=1;resizeParentMax=0;resizeLast=0;collapsible=1;marginBottom=0;" parent="1" vertex="1"><mxGeometry x="-910" y="612" width="240" height="112" as="geometry"/></mxCell><mxCell id="pK76Rk_N3CmU0ejMDRzn-88" value="- repository: AccountRepository" style="text;strokeColor=none;fillColor=none;align=left;verticalAlign=top;spacingLeft=4;spacingRight=4;overflow=hidden;rotatable=0;points=[[0,0.5],[1,0.5]];portConstraint=eastwest;" parent="pK76Rk_N3CmU0ejMDRzn-87" vertex="1"><mxGeometry y="26" width="240" height="26" as="geometry"/></mxCell><mxCell id="pK76Rk_N3CmU0ejMDRzn-89" value="- mapper: AccountMapper" style="text;strokeColor=none;fillColor=none;align=left;verticalAlign=top;spacingLeft=4;spacingRight=4;overflow=hidden;rotatable=0;points=[[0,0.5],[1,0.5]];portConstraint=eastwest;" parent="pK76Rk_N3CmU0ejMDRzn-87" vertex="1"><mxGeometry y="52" width="240" height="26" as="geometry"/></mxCell><mxCell id="pK76Rk_N3CmU0ejMDRzn-90" value="" style="line;strokeWidth=1;fillColor=none;align=left;verticalAlign=middle;spacingTop=-1;spacingLeft=3;spacingRight=3;rotatable=0;labelPosition=right;points=[];portConstraint=eastwest;" parent="pK76Rk_N3CmU0ejMDRzn-87" vertex="1"><mxGeometry y="78" width="240" height="8" as="geometry"/></mxCell><mxCell id="pK76Rk_N3CmU0ejMDRzn-91" value="+ register(): boolean" style="text;strokeColor=none;fillColor=none;align=left;verticalAlign=top;spacingLeft=4;spacingRight=4;overflow=hidden;rotatable=0;points=[[0,0.5],[1,0.5]];portConstraint=eastwest;" parent="pK76Rk_N3CmU0ejMDRzn-87" vertex="1"><mxGeometry y="86" width="240" height="26" as="geometry"/></mxCell><mxCell id="9" style="edgeStyle=orthogonalEdgeStyle;rounded=0;orthogonalLoop=1;jettySize=auto;html=1;endArrow=diamond;endFill=1;startArrow=open;startFill=0;" parent="1" source="11" target="34" edge="1"><mxGeometry relative="1" as="geometry"/></mxCell><mxCell id="11" value="&lt;&lt;interface&gt;&gt;&#10;QuestionRepository" style="swimlane;fontStyle=1;align=center;verticalAlign=top;childLayout=stackLayout;horizontal=1;startSize=35;horizontalStack=0;resizeParent=1;resizeParentMax=0;resizeLast=0;collapsible=1;marginBottom=0;" parent="1" vertex="1"><mxGeometry x="-520" y="740.5" width="240" height="95" as="geometry"/></mxCell><mxCell id="12" value="" style="line;strokeWidth=1;fillColor=none;align=left;verticalAlign=middle;spacingTop=-1;spacingLeft=3;spacingRight=3;rotatable=0;labelPosition=right;points=[];portConstraint=eastwest;" parent="11" vertex="1"><mxGeometry y="35" width="240" height="8" as="geometry"/></mxCell><mxCell id="13" value="+ findById(): Question" style="text;strokeColor=none;fillColor=none;align=left;verticalAlign=top;spacingLeft=4;spacingRight=4;overflow=hidden;rotatable=0;points=[[0,0.5],[1,0.5]];portConstraint=eastwest;" parent="11" vertex="1"><mxGeometry y="43" width="240" height="26" as="geometry"/></mxCell><mxCell id="14" value="+ findByFkAccountId(): Question" style="text;strokeColor=none;fillColor=none;align=left;verticalAlign=top;spacingLeft=4;spacingRight=4;overflow=hidden;rotatable=0;points=[[0,0.5],[1,0.5]];portConstraint=eastwest;" parent="11" vertex="1"><mxGeometry y="69" width="240" height="26" as="geometry"/></mxCell><mxCell id="15" style="edgeStyle=orthogonalEdgeStyle;rounded=0;orthogonalLoop=1;jettySize=auto;html=1;startArrow=diamond;startFill=1;endArrow=none;endFill=0;" parent="1" source="17" target="11" edge="1"><mxGeometry relative="1" as="geometry"/></mxCell><mxCell id="151" style="edgeStyle=orthogonalEdgeStyle;rounded=0;orthogonalLoop=1;jettySize=auto;html=1;dashed=1;" parent="1" source="17" target="pK76Rk_N3CmU0ejMDRzn-52" edge="1"><mxGeometry relative="1" as="geometry"><Array as="points"><mxPoint x="-440" y="1200"/><mxPoint x="-1120" y="1200"/></Array></mxGeometry></mxCell><mxCell id="17" value="Question" style="swimlane;fontStyle=1;align=center;verticalAlign=top;childLayout=stackLayout;horizontal=1;startSize=26;horizontalStack=0;resizeParent=1;resizeParentMax=0;resizeLast=0;collapsible=1;marginBottom=0;" parent="1" vertex="1"><mxGeometry x="-520" y="921" width="240" height="164" as="geometry"/></mxCell><mxCell id="18" value="- id: Long" style="text;strokeColor=none;fillColor=none;align=left;verticalAlign=top;spacingLeft=4;spacingRight=4;overflow=hidden;rotatable=0;points=[[0,0.5],[1,0.5]];portConstraint=eastwest;" parent="17" vertex="1"><mxGeometry y="26" width="240" height="26" as="geometry"/></mxCell><mxCell id="19" value="- title: String" style="text;strokeColor=none;fillColor=none;align=left;verticalAlign=top;spacingLeft=4;spacingRight=4;overflow=hidden;rotatable=0;points=[[0,0.5],[1,0.5]];portConstraint=eastwest;" parent="17" vertex="1"><mxGeometry y="52" width="240" height="26" as="geometry"/></mxCell><mxCell id="20" value="- description: String" style="text;strokeColor=none;fillColor=none;align=left;verticalAlign=top;spacingLeft=4;spacingRight=4;overflow=hidden;rotatable=0;points=[[0,0.5],[1,0.5]];portConstraint=eastwest;" parent="17" vertex="1"><mxGeometry y="78" width="240" height="26" as="geometry"/></mxCell><mxCell id="94" value="- fkAccountId: Long" style="text;strokeColor=none;fillColor=none;align=left;verticalAlign=top;spacingLeft=4;spacingRight=4;overflow=hidden;rotatable=0;points=[[0,0.5],[1,0.5]];portConstraint=eastwest;" parent="17" vertex="1"><mxGeometry y="104" width="240" height="26" as="geometry"/></mxCell><mxCell id="21" value="" style="line;strokeWidth=1;fillColor=none;align=left;verticalAlign=middle;spacingTop=-1;spacingLeft=3;spacingRight=3;rotatable=0;labelPosition=right;points=[];portConstraint=eastwest;" parent="17" vertex="1"><mxGeometry y="130" width="240" height="8" as="geometry"/></mxCell><mxCell id="22" value="+ setters &amp; getters" style="text;strokeColor=none;fillColor=none;align=left;verticalAlign=top;spacingLeft=4;spacingRight=4;overflow=hidden;rotatable=0;points=[[0,0.5],[1,0.5]];portConstraint=eastwest;" parent="17" vertex="1"><mxGeometry y="138" width="240" height="26" as="geometry"/></mxCell><mxCell id="24" style="edgeStyle=orthogonalEdgeStyle;rounded=0;orthogonalLoop=1;jettySize=auto;html=1;endArrow=diamond;endFill=1;startArrow=open;startFill=0;" parent="1" source="25" target="34" edge="1"><mxGeometry relative="1" as="geometry"><mxPoint x="-80" y="909.9999999999998" as="targetPoint"/></mxGeometry></mxCell><mxCell id="25" value="#QuestionMapper::AbstractClass" style="swimlane;fontStyle=3;align=center;verticalAlign=top;childLayout=stackLayout;horizontal=1;startSize=26;horizontalStack=0;resizeParent=1;resizeParentMax=0;resizeLast=0;collapsible=1;marginBottom=0;" parent="1" vertex="1"><mxGeometry x="-200" y="960" width="240" height="86" as="geometry"/></mxCell><mxCell id="26" value="" style="line;strokeWidth=1;fillColor=none;align=left;verticalAlign=middle;spacingTop=-1;spacingLeft=3;spacingRight=3;rotatable=0;labelPosition=right;points=[];portConstraint=eastwest;" parent="25" vertex="1"><mxGeometry y="26" width="240" height="8" as="geometry"/></mxCell><mxCell id="27" value="+ entityToDto(): QuestionDTO" style="text;strokeColor=none;fillColor=none;align=left;verticalAlign=top;spacingLeft=4;spacingRight=4;overflow=hidden;rotatable=0;points=[[0,0.5],[1,0.5]];portConstraint=eastwest;" parent="25" vertex="1"><mxGeometry y="34" width="240" height="26" as="geometry"/></mxCell><mxCell id="28" value="+ dtoToEntity(): Question" style="text;strokeColor=none;fillColor=none;align=left;verticalAlign=top;spacingLeft=4;spacingRight=4;overflow=hidden;rotatable=0;points=[[0,0.5],[1,0.5]];portConstraint=eastwest;" parent="25" vertex="1"><mxGeometry y="60" width="240" height="26" as="geometry"/></mxCell><mxCell id="30" value="QuestionDTO" style="swimlane;fontStyle=1;align=center;verticalAlign=top;childLayout=stackLayout;horizontal=1;startSize=26;horizontalStack=0;resizeParent=1;resizeParentMax=0;resizeLast=0;collapsible=1;marginBottom=0;" parent="1" vertex="1"><mxGeometry x="120" y="947" width="240" height="112" as="geometry"/></mxCell><mxCell id="95" value="- title: String" style="text;strokeColor=none;fillColor=none;align=left;verticalAlign=top;spacingLeft=4;spacingRight=4;overflow=hidden;rotatable=0;points=[[0,0.5],[1,0.5]];portConstraint=eastwest;" parent="30" vertex="1"><mxGeometry y="26" width="240" height="26" as="geometry"/></mxCell><mxCell id="96" value="- description: String" style="text;strokeColor=none;fillColor=none;align=left;verticalAlign=top;spacingLeft=4;spacingRight=4;overflow=hidden;rotatable=0;points=[[0,0.5],[1,0.5]];portConstraint=eastwest;" parent="30" vertex="1"><mxGeometry y="52" width="240" height="26" as="geometry"/></mxCell><mxCell id="32" value="" style="line;strokeWidth=1;fillColor=none;align=left;verticalAlign=middle;spacingTop=-1;spacingLeft=3;spacingRight=3;rotatable=0;labelPosition=right;points=[];portConstraint=eastwest;" parent="30" vertex="1"><mxGeometry y="78" width="240" height="8" as="geometry"/></mxCell><mxCell id="33" value="+ setters &amp; getters" style="text;strokeColor=none;fillColor=none;align=left;verticalAlign=top;spacingLeft=4;spacingRight=4;overflow=hidden;rotatable=0;points=[[0,0.5],[1,0.5]];portConstraint=eastwest;" parent="30" vertex="1"><mxGeometry y="86" width="240" height="26" as="geometry"/></mxCell><mxCell id="44" style="edgeStyle=orthogonalEdgeStyle;rounded=0;orthogonalLoop=1;jettySize=auto;html=1;startArrow=open;startFill=0;endArrow=diamond;endFill=1;" parent="1" source="34" target="pK76Rk_N3CmU0ejMDRzn-24" edge="1"><mxGeometry relative="1" as="geometry"/></mxCell><mxCell id="34" value="QuestionService" style="swimlane;fontStyle=1;align=center;verticalAlign=top;childLayout=stackLayout;horizontal=1;startSize=26;horizontalStack=0;resizeParent=1;resizeParentMax=0;resizeLast=0;collapsible=1;marginBottom=0;" parent="1" vertex="1"><mxGeometry x="-200" y="680" width="240" height="216" as="geometry"/></mxCell><mxCell id="35" value="- repository: QuestionRepository" style="text;strokeColor=none;fillColor=none;align=left;verticalAlign=top;spacingLeft=4;spacingRight=4;overflow=hidden;rotatable=0;points=[[0,0.5],[1,0.5]];portConstraint=eastwest;" parent="34" vertex="1"><mxGeometry y="26" width="240" height="26" as="geometry"/></mxCell><mxCell id="36" value="- mapper: QuestionMapper" style="text;strokeColor=none;fillColor=none;align=left;verticalAlign=top;spacingLeft=4;spacingRight=4;overflow=hidden;rotatable=0;points=[[0,0.5],[1,0.5]];portConstraint=eastwest;" parent="34" vertex="1"><mxGeometry y="52" width="240" height="26" as="geometry"/></mxCell><mxCell id="37" value="" style="line;strokeWidth=1;fillColor=none;align=left;verticalAlign=middle;spacingTop=-1;spacingLeft=3;spacingRight=3;rotatable=0;labelPosition=right;points=[];portConstraint=eastwest;" parent="34" vertex="1"><mxGeometry y="78" width="240" height="8" as="geometry"/></mxCell><mxCell id="38" value="+ addQuestion(): boolean" style="text;strokeColor=none;fillColor=none;align=left;verticalAlign=top;spacingLeft=4;spacingRight=4;overflow=hidden;rotatable=0;points=[[0,0.5],[1,0.5]];portConstraint=eastwest;" parent="34" vertex="1"><mxGeometry y="86" width="240" height="26" as="geometry"/></mxCell><mxCell id="46" value="+ addUpvote(): boolean" style="text;strokeColor=none;fillColor=none;align=left;verticalAlign=top;spacingLeft=4;spacingRight=4;overflow=hidden;rotatable=0;points=[[0,0.5],[1,0.5]];portConstraint=eastwest;" parent="34" vertex="1"><mxGeometry y="112" width="240" height="26" as="geometry"/></mxCell><mxCell id="47" value="+ addDownvote(): boolean" style="text;strokeColor=none;fillColor=none;align=left;verticalAlign=top;spacingLeft=4;spacingRight=4;overflow=hidden;rotatable=0;points=[[0,0.5],[1,0.5]];portConstraint=eastwest;" parent="34" vertex="1"><mxGeometry y="138" width="240" height="26" as="geometry"/></mxCell><mxCell id="48" value="+ addComment(): boolean" style="text;strokeColor=none;fillColor=none;align=left;verticalAlign=top;spacingLeft=4;spacingRight=4;overflow=hidden;rotatable=0;points=[[0,0.5],[1,0.5]];portConstraint=eastwest;" parent="34" vertex="1"><mxGeometry y="164" width="240" height="26" as="geometry"/></mxCell><mxCell id="49" value="+ delete(): boolean" style="text;strokeColor=none;fillColor=none;align=left;verticalAlign=top;spacingLeft=4;spacingRight=4;overflow=hidden;rotatable=0;points=[[0,0.5],[1,0.5]];portConstraint=eastwest;" parent="34" vertex="1"><mxGeometry y="190" width="240" height="26" as="geometry"/></mxCell><mxCell id="pK76Rk_N3CmU0ejMDRzn-65" value="AccountDTO" style="swimlane;fontStyle=1;align=center;verticalAlign=top;childLayout=stackLayout;horizontal=1;startSize=26;horizontalStack=0;resizeParent=1;resizeParentMax=0;resizeLast=0;collapsible=1;marginBottom=0;" parent="1" vertex="1"><mxGeometry x="-910" y="1070" width="240" height="86" as="geometry"/></mxCell><mxCell id="pK76Rk_N3CmU0ejMDRzn-67" value="- email: String" style="text;strokeColor=none;fillColor=none;align=left;verticalAlign=top;spacingLeft=4;spacingRight=4;overflow=hidden;rotatable=0;points=[[0,0.5],[1,0.5]];portConstraint=eastwest;" parent="pK76Rk_N3CmU0ejMDRzn-65" vertex="1"><mxGeometry y="26" width="240" height="26" as="geometry"/></mxCell><mxCell id="pK76Rk_N3CmU0ejMDRzn-69" value="" style="line;strokeWidth=1;fillColor=none;align=left;verticalAlign=middle;spacingTop=-1;spacingLeft=3;spacingRight=3;rotatable=0;labelPosition=right;points=[];portConstraint=eastwest;" parent="pK76Rk_N3CmU0ejMDRzn-65" vertex="1"><mxGeometry y="52" width="240" height="8" as="geometry"/></mxCell><mxCell id="pK76Rk_N3CmU0ejMDRzn-70" value="+ setters &amp; getters" style="text;strokeColor=none;fillColor=none;align=left;verticalAlign=top;spacingLeft=4;spacingRight=4;overflow=hidden;rotatable=0;points=[[0,0.5],[1,0.5]];portConstraint=eastwest;" parent="pK76Rk_N3CmU0ejMDRzn-65" vertex="1"><mxGeometry y="60" width="240" height="26" as="geometry"/></mxCell><mxCell id="50" value="" style="edgeStyle=orthogonalEdgeStyle;rounded=0;orthogonalLoop=1;jettySize=auto;html=1;endArrow=none;endFill=0;dashed=1;startArrow=open;startFill=0;" parent="1" source="pK76Rk_N3CmU0ejMDRzn-52" target="pK76Rk_N3CmU0ejMDRzn-61" edge="1"><mxGeometry relative="1" as="geometry"><mxPoint x="-1140" y="1015" as="sourcePoint"/><mxPoint x="-690" y="917.9999999999995" as="targetPoint"/></mxGeometry></mxCell><mxCell id="60" style="edgeStyle=orthogonalEdgeStyle;rounded=0;orthogonalLoop=1;jettySize=auto;html=1;endArrow=diamond;endFill=1;startArrow=open;startFill=0;" parent="1" source="61" target="84" edge="1"><mxGeometry relative="1" as="geometry"/></mxCell><mxCell id="61" value="&lt;&lt;interface&gt;&gt;&#10;CommentRepository" style="swimlane;fontStyle=1;align=center;verticalAlign=top;childLayout=stackLayout;horizontal=1;startSize=40;horizontalStack=0;resizeParent=1;resizeParentMax=0;resizeLast=0;collapsible=1;marginBottom=0;" parent="1" vertex="1"><mxGeometry x="480" y="683.5" width="240" height="152" as="geometry"/></mxCell><mxCell id="62" value="" style="line;strokeWidth=1;fillColor=none;align=left;verticalAlign=middle;spacingTop=-1;spacingLeft=3;spacingRight=3;rotatable=0;labelPosition=right;points=[];portConstraint=eastwest;" parent="61" vertex="1"><mxGeometry y="40" width="240" height="8" as="geometry"/></mxCell><mxCell id="63" value="+ findById(): Comment" style="text;strokeColor=none;fillColor=none;align=left;verticalAlign=top;spacingLeft=4;spacingRight=4;overflow=hidden;rotatable=0;points=[[0,0.5],[1,0.5]];portConstraint=eastwest;" parent="61" vertex="1"><mxGeometry y="48" width="240" height="26" as="geometry"/></mxCell><mxCell id="64" value="+ findByFkQuestionId(): Comment" style="text;strokeColor=none;fillColor=none;align=left;verticalAlign=top;spacingLeft=4;spacingRight=4;overflow=hidden;rotatable=0;points=[[0,0.5],[1,0.5]];portConstraint=eastwest;" parent="61" vertex="1"><mxGeometry y="74" width="240" height="26" as="geometry"/></mxCell><mxCell id="100" value="+ findByFkThreadId(): Comment" style="text;strokeColor=none;fillColor=none;align=left;verticalAlign=top;spacingLeft=4;spacingRight=4;overflow=hidden;rotatable=0;points=[[0,0.5],[1,0.5]];portConstraint=eastwest;" parent="61" vertex="1"><mxGeometry y="100" width="240" height="26" as="geometry"/></mxCell><mxCell id="97" value="+ findByFkAccountId(): Comment" style="text;strokeColor=none;fillColor=none;align=left;verticalAlign=top;spacingLeft=4;spacingRight=4;overflow=hidden;rotatable=0;points=[[0,0.5],[1,0.5]];portConstraint=eastwest;" parent="61" vertex="1"><mxGeometry y="126" width="240" height="26" as="geometry"/></mxCell><mxCell id="65" style="edgeStyle=orthogonalEdgeStyle;rounded=0;orthogonalLoop=1;jettySize=auto;html=1;startArrow=diamond;startFill=1;endArrow=none;endFill=0;" parent="1" source="67" target="61" edge="1"><mxGeometry relative="1" as="geometry"/></mxCell><mxCell id="152" style="edgeStyle=orthogonalEdgeStyle;rounded=0;orthogonalLoop=1;jettySize=auto;html=1;dashed=1;" parent="1" source="67" target="17" edge="1"><mxGeometry relative="1" as="geometry"><Array as="points"><mxPoint x="520" y="1160"/><mxPoint x="-360" y="1160"/></Array></mxGeometry></mxCell><mxCell id="153" style="edgeStyle=orthogonalEdgeStyle;rounded=0;orthogonalLoop=1;jettySize=auto;html=1;dashed=1;" parent="1" source="67" target="pK76Rk_N3CmU0ejMDRzn-52" edge="1"><mxGeometry relative="1" as="geometry"><mxPoint x="-700" y="1350" as="targetPoint"/><Array as="points"><mxPoint x="600" y="1240"/><mxPoint x="-1200" y="1240"/></Array></mxGeometry></mxCell><mxCell id="154" style="edgeStyle=orthogonalEdgeStyle;rounded=0;orthogonalLoop=1;jettySize=auto;html=1;dashed=1;" parent="1" source="67" target="119" edge="1"><mxGeometry relative="1" as="geometry"><Array as="points"><mxPoint x="680" y="1160"/><mxPoint x="1560" y="1160"/></Array></mxGeometry></mxCell><mxCell id="67" value="Comment" style="swimlane;fontStyle=1;align=center;verticalAlign=top;childLayout=stackLayout;horizontal=1;startSize=26;horizontalStack=0;resizeParent=1;resizeParentMax=0;resizeLast=0;collapsible=1;marginBottom=0;" parent="1" vertex="1"><mxGeometry x="480" y="890" width="240" height="190" as="geometry"/></mxCell><mxCell id="68" value="- id: Long" style="text;strokeColor=none;fillColor=none;align=left;verticalAlign=top;spacingLeft=4;spacingRight=4;overflow=hidden;rotatable=0;points=[[0,0.5],[1,0.5]];portConstraint=eastwest;" parent="67" vertex="1"><mxGeometry y="26" width="240" height="26" as="geometry"/></mxCell><mxCell id="69" value="- subject: String" style="text;strokeColor=none;fillColor=none;align=left;verticalAlign=top;spacingLeft=4;spacingRight=4;overflow=hidden;rotatable=0;points=[[0,0.5],[1,0.5]];portConstraint=eastwest;" parent="67" vertex="1"><mxGeometry y="52" width="240" height="26" as="geometry"/></mxCell><mxCell id="70" value="- fkQuestionId: String" style="text;strokeColor=none;fillColor=none;align=left;verticalAlign=top;spacingLeft=4;spacingRight=4;overflow=hidden;rotatable=0;points=[[0,0.5],[1,0.5]];portConstraint=eastwest;" parent="67" vertex="1"><mxGeometry y="78" width="240" height="26" as="geometry"/></mxCell><mxCell id="98" value="- fkThreadId: String" style="text;strokeColor=none;fillColor=none;align=left;verticalAlign=top;spacingLeft=4;spacingRight=4;overflow=hidden;rotatable=0;points=[[0,0.5],[1,0.5]];portConstraint=eastwest;" parent="67" vertex="1"><mxGeometry y="104" width="240" height="26" as="geometry"/></mxCell><mxCell id="99" value="- fkAccountId: String" style="text;strokeColor=none;fillColor=none;align=left;verticalAlign=top;spacingLeft=4;spacingRight=4;overflow=hidden;rotatable=0;points=[[0,0.5],[1,0.5]];portConstraint=eastwest;" parent="67" vertex="1"><mxGeometry y="130" width="240" height="26" as="geometry"/></mxCell><mxCell id="71" value="" style="line;strokeWidth=1;fillColor=none;align=left;verticalAlign=middle;spacingTop=-1;spacingLeft=3;spacingRight=3;rotatable=0;labelPosition=right;points=[];portConstraint=eastwest;" parent="67" vertex="1"><mxGeometry y="156" width="240" height="8" as="geometry"/></mxCell><mxCell id="72" value="+ setters &amp; getters" style="text;strokeColor=none;fillColor=none;align=left;verticalAlign=top;spacingLeft=4;spacingRight=4;overflow=hidden;rotatable=0;points=[[0,0.5],[1,0.5]];portConstraint=eastwest;" parent="67" vertex="1"><mxGeometry y="164" width="240" height="26" as="geometry"/></mxCell><mxCell id="73" style="edgeStyle=orthogonalEdgeStyle;rounded=0;orthogonalLoop=1;jettySize=auto;html=1;endArrow=diamond;endFill=1;startArrow=open;startFill=0;" parent="1" source="74" target="84" edge="1"><mxGeometry relative="1" as="geometry"/></mxCell><mxCell id="74" value="#CommentMapper::AbstractClass" style="swimlane;fontStyle=3;align=center;verticalAlign=top;childLayout=stackLayout;horizontal=1;startSize=26;horizontalStack=0;resizeParent=1;resizeParentMax=0;resizeLast=0;collapsible=1;marginBottom=0;" parent="1" vertex="1"><mxGeometry x="790" y="942" width="240" height="86" as="geometry"/></mxCell><mxCell id="75" value="" style="line;strokeWidth=1;fillColor=none;align=left;verticalAlign=middle;spacingTop=-1;spacingLeft=3;spacingRight=3;rotatable=0;labelPosition=right;points=[];portConstraint=eastwest;" parent="74" vertex="1"><mxGeometry y="26" width="240" height="8" as="geometry"/></mxCell><mxCell id="76" value="+ entityToDto(): CommentDTO" style="text;strokeColor=none;fillColor=none;align=left;verticalAlign=top;spacingLeft=4;spacingRight=4;overflow=hidden;rotatable=0;points=[[0,0.5],[1,0.5]];portConstraint=eastwest;" parent="74" vertex="1"><mxGeometry y="34" width="240" height="26" as="geometry"/></mxCell><mxCell id="77" value="+ dtoToEntity(): Comment" style="text;strokeColor=none;fillColor=none;align=left;verticalAlign=top;spacingLeft=4;spacingRight=4;overflow=hidden;rotatable=0;points=[[0,0.5],[1,0.5]];portConstraint=eastwest;" parent="74" vertex="1"><mxGeometry y="60" width="240" height="26" as="geometry"/></mxCell><mxCell id="79" value="CommentDTO" style="swimlane;fontStyle=1;align=center;verticalAlign=top;childLayout=stackLayout;horizontal=1;startSize=26;horizontalStack=0;resizeParent=1;resizeParentMax=0;resizeLast=0;collapsible=1;marginBottom=0;" parent="1" vertex="1"><mxGeometry x="1110" y="942" width="240" height="86" as="geometry"/></mxCell><mxCell id="80" value="- subject: String" style="text;strokeColor=none;fillColor=none;align=left;verticalAlign=top;spacingLeft=4;spacingRight=4;overflow=hidden;rotatable=0;points=[[0,0.5],[1,0.5]];portConstraint=eastwest;" parent="79" vertex="1"><mxGeometry y="26" width="240" height="26" as="geometry"/></mxCell><mxCell id="81" value="" style="line;strokeWidth=1;fillColor=none;align=left;verticalAlign=middle;spacingTop=-1;spacingLeft=3;spacingRight=3;rotatable=0;labelPosition=right;points=[];portConstraint=eastwest;" parent="79" vertex="1"><mxGeometry y="52" width="240" height="8" as="geometry"/></mxCell><mxCell id="82" value="+ setters &amp; getters" style="text;strokeColor=none;fillColor=none;align=left;verticalAlign=top;spacingLeft=4;spacingRight=4;overflow=hidden;rotatable=0;points=[[0,0.5],[1,0.5]];portConstraint=eastwest;" parent="79" vertex="1"><mxGeometry y="60" width="240" height="26" as="geometry"/></mxCell><mxCell id="83" style="edgeStyle=orthogonalEdgeStyle;rounded=0;orthogonalLoop=1;jettySize=auto;html=1;startArrow=open;startFill=0;endArrow=diamond;endFill=1;" parent="1" source="84" target="pK76Rk_N3CmU0ejMDRzn-16" edge="1"><mxGeometry relative="1" as="geometry"><mxPoint x="910" y="764" as="targetPoint"/></mxGeometry></mxCell><mxCell id="84" value="CommentService" style="swimlane;fontStyle=1;align=center;verticalAlign=top;childLayout=stackLayout;horizontal=1;startSize=26;horizontalStack=0;resizeParent=1;resizeParentMax=0;resizeLast=0;collapsible=1;marginBottom=0;" parent="1" vertex="1"><mxGeometry x="790" y="664" width="240" height="190" as="geometry"/></mxCell><mxCell id="85" value="- repository: QuestionRepository" style="text;strokeColor=none;fillColor=none;align=left;verticalAlign=top;spacingLeft=4;spacingRight=4;overflow=hidden;rotatable=0;points=[[0,0.5],[1,0.5]];portConstraint=eastwest;" parent="84" vertex="1"><mxGeometry y="26" width="240" height="26" as="geometry"/></mxCell><mxCell id="86" value="- mapper: QuestionMapper" style="text;strokeColor=none;fillColor=none;align=left;verticalAlign=top;spacingLeft=4;spacingRight=4;overflow=hidden;rotatable=0;points=[[0,0.5],[1,0.5]];portConstraint=eastwest;" parent="84" vertex="1"><mxGeometry y="52" width="240" height="26" as="geometry"/></mxCell><mxCell id="87" value="" style="line;strokeWidth=1;fillColor=none;align=left;verticalAlign=middle;spacingTop=-1;spacingLeft=3;spacingRight=3;rotatable=0;labelPosition=right;points=[];portConstraint=eastwest;" parent="84" vertex="1"><mxGeometry y="78" width="240" height="8" as="geometry"/></mxCell><mxCell id="89" value="+ addUpvote(): boolean" style="text;strokeColor=none;fillColor=none;align=left;verticalAlign=top;spacingLeft=4;spacingRight=4;overflow=hidden;rotatable=0;points=[[0,0.5],[1,0.5]];portConstraint=eastwest;" parent="84" vertex="1"><mxGeometry y="86" width="240" height="26" as="geometry"/></mxCell><mxCell id="90" value="+ addDownvote(): boolean" style="text;strokeColor=none;fillColor=none;align=left;verticalAlign=top;spacingLeft=4;spacingRight=4;overflow=hidden;rotatable=0;points=[[0,0.5],[1,0.5]];portConstraint=eastwest;" parent="84" vertex="1"><mxGeometry y="112" width="240" height="26" as="geometry"/></mxCell><mxCell id="91" value="+ addComment(): boolean" style="text;strokeColor=none;fillColor=none;align=left;verticalAlign=top;spacingLeft=4;spacingRight=4;overflow=hidden;rotatable=0;points=[[0,0.5],[1,0.5]];portConstraint=eastwest;" parent="84" vertex="1"><mxGeometry y="138" width="240" height="26" as="geometry"/></mxCell><mxCell id="92" value="+ delete(): boolean" style="text;strokeColor=none;fillColor=none;align=left;verticalAlign=top;spacingLeft=4;spacingRight=4;overflow=hidden;rotatable=0;points=[[0,0.5],[1,0.5]];portConstraint=eastwest;" parent="84" vertex="1"><mxGeometry y="164" width="240" height="26" as="geometry"/></mxCell><mxCell id="112" style="edgeStyle=orthogonalEdgeStyle;rounded=0;orthogonalLoop=1;jettySize=auto;html=1;endArrow=diamond;endFill=1;startArrow=open;startFill=0;" parent="1" source="113" target="138" edge="1"><mxGeometry relative="1" as="geometry"/></mxCell><mxCell id="113" value="&lt;&lt;interface&gt;&gt;&#10;ThreadRepository" style="swimlane;fontStyle=1;align=center;verticalAlign=top;childLayout=stackLayout;horizontal=1;startSize=35;horizontalStack=0;resizeParent=1;resizeParentMax=0;resizeLast=0;collapsible=1;marginBottom=0;" parent="1" vertex="1"><mxGeometry x="1480" y="740" width="240" height="95" as="geometry"/></mxCell><mxCell id="114" value="" style="line;strokeWidth=1;fillColor=none;align=left;verticalAlign=middle;spacingTop=-1;spacingLeft=3;spacingRight=3;rotatable=0;labelPosition=right;points=[];portConstraint=eastwest;" parent="113" vertex="1"><mxGeometry y="35" width="240" height="8" as="geometry"/></mxCell><mxCell id="115" value="+ findById(): Account" style="text;strokeColor=none;fillColor=none;align=left;verticalAlign=top;spacingLeft=4;spacingRight=4;overflow=hidden;rotatable=0;points=[[0,0.5],[1,0.5]];portConstraint=eastwest;" parent="113" vertex="1"><mxGeometry y="43" width="240" height="26" as="geometry"/></mxCell><mxCell id="116" value="+ findByFkAccountId(): Account" style="text;strokeColor=none;fillColor=none;align=left;verticalAlign=top;spacingLeft=4;spacingRight=4;overflow=hidden;rotatable=0;points=[[0,0.5],[1,0.5]];portConstraint=eastwest;" parent="113" vertex="1"><mxGeometry y="69" width="240" height="26" as="geometry"/></mxCell><mxCell id="117" style="edgeStyle=orthogonalEdgeStyle;rounded=0;orthogonalLoop=1;jettySize=auto;html=1;endArrow=none;endFill=0;startArrow=diamond;startFill=1;" parent="1" source="119" target="113" edge="1"><mxGeometry relative="1" as="geometry"/></mxCell><mxCell id="155" style="edgeStyle=orthogonalEdgeStyle;rounded=0;orthogonalLoop=1;jettySize=auto;html=1;dashed=1;" parent="1" source="119" target="pK76Rk_N3CmU0ejMDRzn-52" edge="1"><mxGeometry relative="1" as="geometry"><mxPoint x="-1400" y="958.5714285714286" as="targetPoint"/><Array as="points"><mxPoint x="1640" y="1280"/><mxPoint x="-1280" y="1280"/></Array></mxGeometry></mxCell><mxCell id="119" value="Thread" style="swimlane;fontStyle=1;align=center;verticalAlign=top;childLayout=stackLayout;horizontal=1;startSize=26;horizontalStack=0;resizeParent=1;resizeParentMax=0;resizeLast=0;collapsible=1;marginBottom=0;" parent="1" vertex="1"><mxGeometry x="1480" y="921" width="240" height="164" as="geometry"/></mxCell><mxCell id="120" value="- id: Long" style="text;strokeColor=none;fillColor=none;align=left;verticalAlign=top;spacingLeft=4;spacingRight=4;overflow=hidden;rotatable=0;points=[[0,0.5],[1,0.5]];portConstraint=eastwest;" parent="119" vertex="1"><mxGeometry y="26" width="240" height="26" as="geometry"/></mxCell><mxCell id="121" value="- title: String" style="text;strokeColor=none;fillColor=none;align=left;verticalAlign=top;spacingLeft=4;spacingRight=4;overflow=hidden;rotatable=0;points=[[0,0.5],[1,0.5]];portConstraint=eastwest;" parent="119" vertex="1"><mxGeometry y="52" width="240" height="26" as="geometry"/></mxCell><mxCell id="122" value="- description: String" style="text;strokeColor=none;fillColor=none;align=left;verticalAlign=top;spacingLeft=4;spacingRight=4;overflow=hidden;rotatable=0;points=[[0,0.5],[1,0.5]];portConstraint=eastwest;" parent="119" vertex="1"><mxGeometry y="78" width="240" height="26" as="geometry"/></mxCell><mxCell id="123" value="- fkAccountId: Long" style="text;strokeColor=none;fillColor=none;align=left;verticalAlign=top;spacingLeft=4;spacingRight=4;overflow=hidden;rotatable=0;points=[[0,0.5],[1,0.5]];portConstraint=eastwest;" parent="119" vertex="1"><mxGeometry y="104" width="240" height="26" as="geometry"/></mxCell><mxCell id="124" value="" style="line;strokeWidth=1;fillColor=none;align=left;verticalAlign=middle;spacingTop=-1;spacingLeft=3;spacingRight=3;rotatable=0;labelPosition=right;points=[];portConstraint=eastwest;" parent="119" vertex="1"><mxGeometry y="130" width="240" height="8" as="geometry"/></mxCell><mxCell id="125" value="+ setters &amp; getters" style="text;strokeColor=none;fillColor=none;align=left;verticalAlign=top;spacingLeft=4;spacingRight=4;overflow=hidden;rotatable=0;points=[[0,0.5],[1,0.5]];portConstraint=eastwest;" parent="119" vertex="1"><mxGeometry y="138" width="240" height="26" as="geometry"/></mxCell><mxCell id="126" style="edgeStyle=orthogonalEdgeStyle;rounded=0;orthogonalLoop=1;jettySize=auto;html=1;endArrow=diamond;endFill=1;startArrow=open;startFill=0;" parent="1" source="127" target="138" edge="1"><mxGeometry relative="1" as="geometry"><mxPoint x="1900" y="909.9999999999998" as="targetPoint"/></mxGeometry></mxCell><mxCell id="127" value="#ThreadMapper::AbstractClass" style="swimlane;fontStyle=3;align=center;verticalAlign=top;childLayout=stackLayout;horizontal=1;startSize=26;horizontalStack=0;resizeParent=1;resizeParentMax=0;resizeLast=0;collapsible=1;marginBottom=0;" parent="1" vertex="1"><mxGeometry x="1790" y="960" width="240" height="86" as="geometry"/></mxCell><mxCell id="128" value="" style="line;strokeWidth=1;fillColor=none;align=left;verticalAlign=middle;spacingTop=-1;spacingLeft=3;spacingRight=3;rotatable=0;labelPosition=right;points=[];portConstraint=eastwest;" parent="127" vertex="1"><mxGeometry y="26" width="240" height="8" as="geometry"/></mxCell><mxCell id="129" value="+ entityToDto(): ThreadDTO" style="text;strokeColor=none;fillColor=none;align=left;verticalAlign=top;spacingLeft=4;spacingRight=4;overflow=hidden;rotatable=0;points=[[0,0.5],[1,0.5]];portConstraint=eastwest;" parent="127" vertex="1"><mxGeometry y="34" width="240" height="26" as="geometry"/></mxCell><mxCell id="130" value="+ dtoToEntity(): Thread" style="text;strokeColor=none;fillColor=none;align=left;verticalAlign=top;spacingLeft=4;spacingRight=4;overflow=hidden;rotatable=0;points=[[0,0.5],[1,0.5]];portConstraint=eastwest;" parent="127" vertex="1"><mxGeometry y="60" width="240" height="26" as="geometry"/></mxCell><mxCell id="131" style="edgeStyle=orthogonalEdgeStyle;rounded=0;orthogonalLoop=1;jettySize=auto;html=1;endArrow=none;endFill=0;dashed=1;startArrow=open;startFill=0;" parent="1" source="132" target="127" edge="1"><mxGeometry relative="1" as="geometry"/></mxCell><mxCell id="132" value="ThreadDTO" style="swimlane;fontStyle=1;align=center;verticalAlign=top;childLayout=stackLayout;horizontal=1;startSize=26;horizontalStack=0;resizeParent=1;resizeParentMax=0;resizeLast=0;collapsible=1;marginBottom=0;" parent="1" vertex="1"><mxGeometry x="2080" y="947" width="240" height="112" as="geometry"/></mxCell><mxCell id="133" value="- title: String" style="text;strokeColor=none;fillColor=none;align=left;verticalAlign=top;spacingLeft=4;spacingRight=4;overflow=hidden;rotatable=0;points=[[0,0.5],[1,0.5]];portConstraint=eastwest;" parent="132" vertex="1"><mxGeometry y="26" width="240" height="26" as="geometry"/></mxCell><mxCell id="134" value="- description: String" style="text;strokeColor=none;fillColor=none;align=left;verticalAlign=top;spacingLeft=4;spacingRight=4;overflow=hidden;rotatable=0;points=[[0,0.5],[1,0.5]];portConstraint=eastwest;" parent="132" vertex="1"><mxGeometry y="52" width="240" height="26" as="geometry"/></mxCell><mxCell id="135" value="" style="line;strokeWidth=1;fillColor=none;align=left;verticalAlign=middle;spacingTop=-1;spacingLeft=3;spacingRight=3;rotatable=0;labelPosition=right;points=[];portConstraint=eastwest;" parent="132" vertex="1"><mxGeometry y="78" width="240" height="8" as="geometry"/></mxCell><mxCell id="136" value="+ setters &amp; getters" style="text;strokeColor=none;fillColor=none;align=left;verticalAlign=top;spacingLeft=4;spacingRight=4;overflow=hidden;rotatable=0;points=[[0,0.5],[1,0.5]];portConstraint=eastwest;" parent="132" vertex="1"><mxGeometry y="86" width="240" height="26" as="geometry"/></mxCell><mxCell id="137" style="edgeStyle=orthogonalEdgeStyle;rounded=0;orthogonalLoop=1;jettySize=auto;html=1;startArrow=open;startFill=0;endArrow=diamond;endFill=1;" parent="1" source="138" target="pK76Rk_N3CmU0ejMDRzn-32" edge="1"><mxGeometry relative="1" as="geometry"><mxPoint x="1910" y="790" as="targetPoint"/></mxGeometry></mxCell><mxCell id="138" value="ThreadService" style="swimlane;fontStyle=1;align=center;verticalAlign=top;childLayout=stackLayout;horizontal=1;startSize=26;horizontalStack=0;resizeParent=1;resizeParentMax=0;resizeLast=0;collapsible=1;marginBottom=0;" parent="1" vertex="1"><mxGeometry x="1790" y="680" width="240" height="216" as="geometry"/></mxCell><mxCell id="139" value="- repository: ThreadRepository" style="text;strokeColor=none;fillColor=none;align=left;verticalAlign=top;spacingLeft=4;spacingRight=4;overflow=hidden;rotatable=0;points=[[0,0.5],[1,0.5]];portConstraint=eastwest;" parent="138" vertex="1"><mxGeometry y="26" width="240" height="26" as="geometry"/></mxCell><mxCell id="140" value="- mapper: ThreadMapper" style="text;strokeColor=none;fillColor=none;align=left;verticalAlign=top;spacingLeft=4;spacingRight=4;overflow=hidden;rotatable=0;points=[[0,0.5],[1,0.5]];portConstraint=eastwest;" parent="138" vertex="1"><mxGeometry y="52" width="240" height="26" as="geometry"/></mxCell><mxCell id="141" value="" style="line;strokeWidth=1;fillColor=none;align=left;verticalAlign=middle;spacingTop=-1;spacingLeft=3;spacingRight=3;rotatable=0;labelPosition=right;points=[];portConstraint=eastwest;" parent="138" vertex="1"><mxGeometry y="78" width="240" height="8" as="geometry"/></mxCell><mxCell id="142" value="+ addThread(): boolean" style="text;strokeColor=none;fillColor=none;align=left;verticalAlign=top;spacingLeft=4;spacingRight=4;overflow=hidden;rotatable=0;points=[[0,0.5],[1,0.5]];portConstraint=eastwest;" parent="138" vertex="1"><mxGeometry y="86" width="240" height="26" as="geometry"/></mxCell><mxCell id="143" value="+ addUpvote(): boolean" style="text;strokeColor=none;fillColor=none;align=left;verticalAlign=top;spacingLeft=4;spacingRight=4;overflow=hidden;rotatable=0;points=[[0,0.5],[1,0.5]];portConstraint=eastwest;" parent="138" vertex="1"><mxGeometry y="112" width="240" height="26" as="geometry"/></mxCell><mxCell id="144" value="+ addDownvote(): boolean" style="text;strokeColor=none;fillColor=none;align=left;verticalAlign=top;spacingLeft=4;spacingRight=4;overflow=hidden;rotatable=0;points=[[0,0.5],[1,0.5]];portConstraint=eastwest;" parent="138" vertex="1"><mxGeometry y="138" width="240" height="26" as="geometry"/></mxCell><mxCell id="145" value="+ addComment(): boolean" style="text;strokeColor=none;fillColor=none;align=left;verticalAlign=top;spacingLeft=4;spacingRight=4;overflow=hidden;rotatable=0;points=[[0,0.5],[1,0.5]];portConstraint=eastwest;" parent="138" vertex="1"><mxGeometry y="164" width="240" height="26" as="geometry"/></mxCell><mxCell id="146" value="+ delete(): boolean" style="text;strokeColor=none;fillColor=none;align=left;verticalAlign=top;spacingLeft=4;spacingRight=4;overflow=hidden;rotatable=0;points=[[0,0.5],[1,0.5]];portConstraint=eastwest;" parent="138" vertex="1"><mxGeometry y="190" width="240" height="26" as="geometry"/></mxCell><mxCell id="156" style="edgeStyle=orthogonalEdgeStyle;rounded=0;orthogonalLoop=1;jettySize=auto;html=1;endArrow=none;endFill=0;dashed=1;startArrow=open;startFill=0;" parent="1" edge="1"><mxGeometry relative="1" as="geometry"><mxPoint x="-280" y="1003" as="sourcePoint"/><mxPoint x="-200" y="1003" as="targetPoint"/><Array as="points"><mxPoint x="-260" y="1003"/><mxPoint x="-260" y="1003"/></Array></mxGeometry></mxCell><mxCell id="157" style="edgeStyle=orthogonalEdgeStyle;rounded=0;orthogonalLoop=1;jettySize=auto;html=1;endArrow=none;endFill=0;dashed=1;startArrow=open;startFill=0;" parent="1" edge="1"><mxGeometry relative="1" as="geometry"><mxPoint x="120" y="1003" as="sourcePoint"/><mxPoint x="40" y="1003" as="targetPoint"/><Array as="points"><mxPoint x="80" y="1003"/><mxPoint x="80" y="1003"/></Array></mxGeometry></mxCell><mxCell id="159" style="edgeStyle=orthogonalEdgeStyle;rounded=0;orthogonalLoop=1;jettySize=auto;html=1;endArrow=none;endFill=0;dashed=1;startArrow=open;startFill=0;" parent="1" edge="1"><mxGeometry relative="1" as="geometry"><mxPoint x="720" y="985" as="sourcePoint"/><mxPoint x="790" y="985" as="targetPoint"/><Array as="points"><mxPoint x="750" y="985"/><mxPoint x="750" y="985"/></Array></mxGeometry></mxCell><mxCell id="160" style="edgeStyle=orthogonalEdgeStyle;rounded=0;orthogonalLoop=1;jettySize=auto;html=1;endArrow=none;endFill=0;dashed=1;startArrow=open;startFill=0;" parent="1" edge="1"><mxGeometry relative="1" as="geometry"><mxPoint x="1110" y="985" as="sourcePoint"/><mxPoint x="1030" y="985" as="targetPoint"/><Array as="points"><mxPoint x="1070" y="985"/><mxPoint x="1070" y="985"/></Array></mxGeometry></mxCell><mxCell id="161" style="edgeStyle=orthogonalEdgeStyle;rounded=0;orthogonalLoop=1;jettySize=auto;html=1;endArrow=none;endFill=0;dashed=1;startArrow=open;startFill=0;" parent="1" target="127" edge="1"><mxGeometry relative="1" as="geometry"><mxPoint x="1720" y="1003" as="sourcePoint"/><mxPoint x="1780" y="1003" as="targetPoint"/><Array as="points"/></mxGeometry></mxCell><mxCell id="165" style="edgeStyle=orthogonalEdgeStyle;rounded=0;orthogonalLoop=1;jettySize=auto;html=1;dashed=1;startArrow=open;startFill=0;endArrow=none;endFill=0;" parent="1" edge="1"><mxGeometry relative="1" as="geometry"><mxPoint x="-1200" y="770" as="sourcePoint"/><mxPoint x="-1110" y="724" as="targetPoint"/><Array as="points"><mxPoint x="-1200" y="724"/></Array></mxGeometry></mxCell><mxCell id="175" style="edgeStyle=orthogonalEdgeStyle;rounded=0;orthogonalLoop=1;jettySize=auto;html=1;dashed=1;endArrow=open;endFill=0;" edge="1" parent="1" source="168" target="pK76Rk_N3CmU0ejMDRzn-77"><mxGeometry relative="1" as="geometry"/></mxCell><mxCell id="168" value="PasswordValidationService" style="swimlane;fontStyle=1;align=center;verticalAlign=top;childLayout=stackLayout;horizontal=1;startSize=26;horizontalStack=0;resizeParent=1;resizeParentMax=0;resizeLast=0;collapsible=1;marginBottom=0;" vertex="1" parent="1"><mxGeometry x="-1600" y="625" width="240" height="86" as="geometry"/></mxCell><mxCell id="169" value="- repository: Repository" style="text;strokeColor=none;fillColor=none;align=left;verticalAlign=top;spacingLeft=4;spacingRight=4;overflow=hidden;rotatable=0;points=[[0,0.5],[1,0.5]];portConstraint=eastwest;" vertex="1" parent="168"><mxGeometry y="26" width="240" height="26" as="geometry"/></mxCell><mxCell id="171" value="" style="line;strokeWidth=1;fillColor=none;align=left;verticalAlign=middle;spacingTop=-1;spacingLeft=3;spacingRight=3;rotatable=0;labelPosition=right;points=[];portConstraint=eastwest;" vertex="1" parent="168"><mxGeometry y="52" width="240" height="8" as="geometry"/></mxCell><mxCell id="172" value="+ validate(): boolean" style="text;strokeColor=none;fillColor=none;align=left;verticalAlign=top;spacingLeft=4;spacingRight=4;overflow=hidden;rotatable=0;points=[[0,0.5],[1,0.5]];portConstraint=eastwest;" vertex="1" parent="168"><mxGeometry y="60" width="240" height="26" as="geometry"/></mxCell><mxCell id="182" style="edgeStyle=orthogonalEdgeStyle;rounded=0;orthogonalLoop=1;jettySize=auto;html=1;dashed=1;endArrow=open;endFill=0;" edge="1" parent="1" source="176" target="181"><mxGeometry relative="1" as="geometry"/></mxCell><mxCell id="176" value="TransactionService" style="swimlane;fontStyle=1;align=center;verticalAlign=top;childLayout=stackLayout;horizontal=1;startSize=26;horizontalStack=0;resizeParent=1;resizeParentMax=0;resizeLast=0;collapsible=1;marginBottom=0;" vertex="1" parent="1"><mxGeometry x="-1600" y="440" width="240" height="60" as="geometry"/></mxCell><mxCell id="178" value="" style="line;strokeWidth=1;fillColor=none;align=left;verticalAlign=middle;spacingTop=-1;spacingLeft=3;spacingRight=3;rotatable=0;labelPosition=right;points=[];portConstraint=eastwest;" vertex="1" parent="176"><mxGeometry y="26" width="240" height="8" as="geometry"/></mxCell><mxCell id="179" value="+ createTransaction(): boolean" style="text;strokeColor=none;fillColor=none;align=left;verticalAlign=top;spacingLeft=4;spacingRight=4;overflow=hidden;rotatable=0;points=[[0,0.5],[1,0.5]];portConstraint=eastwest;" vertex="1" parent="176"><mxGeometry y="34" width="240" height="26" as="geometry"/></mxCell><mxCell id="181" value="Every Database-Access Service" style="rounded=0;whiteSpace=wrap;html=1;" vertex="1" parent="1"><mxGeometry x="-1320" y="440" width="160" height="60" as="geometry"/></mxCell></root></mxGraphModel></diagram></mxfile>